<svg height="56" viewBox="0 0 50 50" width="56" xmlns="http://www.w3.org/2000/svg"><path d="m0 4.00718972c0-2.21310977 1.79426827-4.00718972 4.00718972-4.00718972h41.98562058c2.2131098 0 4.0071897 1.79426827 4.0071897 4.00718972v41.98562058c0 2.2131098-1.7942683 4.0071897-4.0071897 4.0071897h-41.98562058c-2.21310977 0-4.00718972-1.7942683-4.00718972-4.0071897zm34.2798358 43.99281028v-19.1580606h6.4861943l.9710969-7.4663701h-7.4572912v-4.7669473c0-2.1616884.6053931-3.634758 3.732198-3.634758l3.9879662-.0018536v-6.67784135c-.6900883-.09082724-3.0570669-.29416905-5.8110632-.29416905-5.7497387 0-9.6861026 3.47942485-9.6861026 9.8693994v5.5061699h-6.5028342v7.4663701h6.5028342v19.1580606z" fill="white" fill-rule="evenodd" transform="translate(3 3)"/></svg>